<?xml version="1.0" encoding="UTF-8"?>
<svg version="1.1" xmlns="http://www.w3.org/2000/svg" width="512" height="512">
<path d="M0 0 C1.81951172 -0.0299707 1.81951172 -0.0299707 3.67578125 -0.06054688 C16.3470804 -0.05378524 27.28341601 3.0520688 37.625 10.4375 C38.27404297 10.89133057 38.92308594 11.34516113 39.59179688 11.81274414 C48.37794182 18.82344492 53.86272054 28.79481421 59.875 38.125 C61.61283992 40.80485337 63.35447303 43.48206818 65.10296631 46.15498352 C66.18382672 47.80893881 67.25829682 49.46709404 68.32525635 51.13005066 C71.96441691 56.72173587 75.68778893 61.46719972 81.375 65.125 C81.96796875 65.52074219 82.5609375 65.91648437 83.171875 66.32421875 C92.06942563 70.36211991 101.65311948 69.67406246 111.1875 69.5625 C112.68814506 69.55244923 114.18879665 69.54332709 115.68945312 69.53515625 C119.33477281 69.51331091 122.97984376 69.4788969 126.625 69.4375 C117.89443214 62.70792017 109.12837168 56.03373453 100.25 49.5 C99.47309814 48.92483643 98.69619629 48.34967285 97.89575195 47.75708008 C93.71607589 44.67151965 89.5045163 41.6468215 85.234375 38.6875 C84.3582959 38.0699585 83.4822168 37.45241699 82.57958984 36.81616211 C80.899203 35.63308453 79.20720451 34.46627736 77.50244141 33.31860352 C73.71838848 30.63154697 71.91100015 29.25953112 70.3515625 24.77734375 C70.625 21.4375 70.625 21.4375 72.28909302 19.26011658 C75.17930271 17.00499934 76.6383906 16.93639677 80.27294922 16.93579102 C81.40868378 16.92641006 82.54441833 16.91702911 83.71456909 16.90736389 C84.94055817 16.91859787 86.16654724 16.92983185 87.4296875 16.94140625 C89.33574265 16.9392234 89.33574265 16.9392234 91.28030396 16.93699646 C93.97582662 16.93865806 96.66994472 16.94815957 99.36523438 16.97094727 C102.77859399 16.99904698 106.19105173 16.99667453 109.60447502 16.98385715 C112.90043418 16.97511002 116.19625586 16.99041162 119.4921875 17.00390625 C120.69793427 17.00097061 121.90368103 16.99803497 123.14596558 16.99501038 C134.39293699 17.11722737 145.51785737 18.72383326 155.625 23.875 C156.32173828 24.21571533 157.01847656 24.55643066 157.73632812 24.9074707 C164.56274141 28.29604134 171.23769528 31.97845761 177.90820312 35.66186523 C184.9237481 39.5342773 192.00393843 43.26314221 199.125 46.9375 C229.91624648 62.84750692 229.91624648 62.84750692 236.56507874 67.49069214 C241.50472008 70.29206638 246.45092767 69.9871406 252.0012207 69.93579102 C253.69041122 69.94406921 253.69041122 69.94406921 255.41372681 69.95251465 C257.85159375 69.96181865 260.28950929 69.96195312 262.72738075 69.95392036 C266.59130167 69.94127363 270.45450997 69.9525976 274.31840515 69.96995544 C281.82839829 69.99938223 289.33821117 70.00228025 296.84825134 70.00030518 C307.04676978 69.99881548 317.24506153 70.01562588 327.44350243 70.05644035 C331.24014652 70.06624959 335.03644726 70.05757506 338.83308411 70.04774475 C341.17559022 70.05389228 343.5180945 70.06080512 345.8605957 70.06860352 C347.4312252 70.05702461 347.4312252 70.05702461 349.03358459 70.04521179 C362.403824 70.13665063 374.01274107 75.03884682 383.625 84.4375 C389.8359099 92.10202711 394.08850062 100.80927426 398.41625977 109.60839844 C399.57606558 111.96506456 400.74898444 114.31486232 401.92382812 116.6640625 C402.66742984 118.16107949 403.41029644 119.65846191 404.15234375 121.15625 C404.67718605 122.20927307 404.67718605 122.20927307 405.21263123 123.28356934 C407.625 128.20517627 407.625 128.20517627 407.625 130.4375 C408.3984375 130.66050781 409.171875 130.88351563 409.96875 131.11328125 C414.90032443 132.89939635 419.4674281 135.22475897 424.125 137.625 C425.51138672 138.31045898 425.51138672 138.31045898 426.92578125 139.00976562 C434.05996718 142.68912761 440.18824962 147.38291567 443.15625 155.15625 C444.81769225 163.24193561 444.95941361 172.26329816 440.625 179.4375 C440.2846875 180.02789062 439.944375 180.61828125 439.59375 181.2265625 C435.42081482 187.85250687 429.65951004 191.19677253 422.11844635 193.02272987 C417.00687099 193.87301035 411.84161972 193.61052163 406.67675781 193.51831055 C404.70736095 193.49674036 402.73796363 193.47519638 400.76855612 193.45462096 C398.66176919 193.43137025 396.55506957 193.40371484 394.44834137 193.37567711 C390.02101539 193.3198285 385.59381988 193.29384861 381.16619873 193.27510071 C380.41461211 193.27183248 379.6630255 193.26856425 378.88866353 193.26519698 C377.3517588 193.25866574 375.81485357 193.25224786 374.2779479 193.2459408 C363.98556593 193.20352639 353.69465043 193.14735362 343.40332031 192.98852539 C336.44273757 192.88131819 329.48402783 192.82981395 322.52259707 192.83848029 C318.85568135 192.84100982 315.1934488 192.81854198 311.527565 192.72748375 C290.46755191 192.22706285 276.12643067 196.43308188 258.47377777 207.6446476 C254.61271061 210.07457513 250.64040703 212.27506368 246.625 214.4375 C247.7885199 214.44336624 248.95203979 214.44923248 250.15081787 214.45527649 C261.15488947 214.51267018 272.15876661 214.58551801 283.16263962 214.67321491 C288.81886093 214.7178039 294.47501212 214.75708504 300.13134766 214.78393555 C305.59743947 214.81008326 311.06325974 214.85056595 316.52918243 214.90068626 C318.60696262 214.91727773 320.68478969 214.92883979 322.76262665 214.93511391 C341.64430926 214.99785814 357.95942597 216.69729763 372.25 230.5 C377.12736576 235.66676083 381.48090169 241.18575369 385.80078125 246.8203125 C388.66233991 250.52940606 391.68332574 254.08480945 394.75 257.625 C399.81536713 263.47849294 404.74977191 269.42412123 409.625 275.4375 C411.0198092 277.14666961 412.4156717 278.85498011 413.8125 280.5625 C414.54726563 281.46097656 415.28203125 282.35945313 416.0390625 283.28515625 C418.63231256 286.45041623 421.23727657 289.60597527 423.84179688 292.76196289 C426.24132585 295.67155048 428.63633251 298.58483729 431.03027344 301.49902344 C432.41492631 303.18214405 433.80457485 304.86097308 435.1953125 306.5390625 C435.89398438 307.39242188 436.59265625 308.24578125 437.3125 309.125 C437.89386719 309.83011719 438.47523438 310.53523438 439.07421875 311.26171875 C444.07683247 318.28049921 444.18372234 324.70912153 444.1809082 333.01269531 C444.18744438 335.16914999 444.24190632 337.32092627 444.29882812 339.4765625 C444.40360367 347.98488948 443.50906179 354.81476475 437.625 361.4375 C431.37502803 366.3981298 426.15798994 367.58664719 418.23828125 367.53515625 C417.42127243 367.5337413 416.60426361 367.53232635 415.76249695 367.53086853 C413.15412732 367.52527294 410.54584366 367.51272129 407.9375 367.5 C406.16862103 367.49498443 404.39974072 367.49042162 402.63085938 367.48632812 C398.29553981 367.47530496 393.96028448 367.45804338 389.625 367.4375 C389.18124023 368.844552 389.18124023 368.844552 388.72851562 370.2800293 C387.59324517 373.52835955 386.26918318 375.5833993 384.125 378.25 C383.5165625 379.01957031 382.908125 379.78914063 382.28125 380.58203125 C380.625 382.4375 380.625 382.4375 378.625 383.4375 C379.78011833 383.44963028 379.78011833 383.44963028 380.95857239 383.46200562 C388.21284743 383.53991904 395.46692039 383.6271996 402.72095203 383.72502708 C406.45040473 383.77499118 410.17982908 383.82132103 413.90942383 383.859375 C417.50812369 383.89622665 421.10658651 383.94258593 424.70508385 383.99556351 C426.07856784 384.01410817 427.45210265 384.0292159 428.82566261 384.04084396 C430.74821528 384.05770437 432.67063734 384.08787454 434.59301758 384.11865234 C435.68777908 384.13197601 436.78254059 384.14529968 437.91047668 384.1590271 C440.625 384.4375 440.625 384.4375 443.625 386.4375 C443.98828125 388.3125 443.98828125 388.3125 443.9375 390.4375 C443.93363281 391.13875 443.92976562 391.84 443.92578125 392.5625 C443.625 394.4375 443.625 394.4375 441.625 396.4375 C438.6927166 396.68359566 438.6927166 396.68359566 434.85470581 396.67800903 C433.79858603 396.68057231 433.79858603 396.68057231 432.72113049 396.68318737 C430.35028063 396.68649452 427.97971072 396.67545865 425.60888672 396.66455078 C423.91403205 396.66398693 422.21917689 396.66430271 420.52432251 396.66543579 C415.91297528 396.66601133 411.30173138 396.6542246 406.69040823 396.64028788 C401.87508253 396.62781391 397.05975465 396.62661266 392.24441528 396.62423706 C383.12130578 396.61801246 373.99824402 396.60158843 364.87515557 396.58153808 C354.49079108 396.55920952 344.10642435 396.54819332 333.72204185 396.53814721 C312.35633455 396.51722302 290.99067028 396.48202806 269.625 396.4375 C269.67697921 399.52219706 269.77207135 402.60411559 269.875 405.6875 C269.88917969 406.56019531 269.90335937 407.43289063 269.91796875 408.33203125 C270.03327174 413.51646508 270.03327174 413.51646508 272.609375 417.859375 C273.27453125 418.38015625 273.9396875 418.9009375 274.625 419.4375 C275.88761005 423.22533015 275.84817056 426.80271826 275.875 430.75 C275.9059375 431.87051758 275.9059375 431.87051758 275.9375 433.01367188 C275.97187425 437.90770555 275.29091956 441.17979352 272.625 445.4375 C268.02366878 449.60745642 263.70288769 449.51920493 257.7734375 449.40234375 C256.18360187 449.39630965 254.59375323 449.39314818 253.00390625 449.39257812 C250.5074289 449.39086586 248.01571703 449.37540693 245.52001953 449.31079102 C235.52580564 448.82627663 235.52580564 448.82627663 226.65649414 452.62719727 C224.28931979 455.23040742 224.28931979 455.23040742 222.46655273 457.98828125 C218.83559253 462.81736686 212.49494356 465.35086798 206.625 466.4375 C194.35983389 467.31770604 185.42000043 465.71786909 175.51171875 458.1953125 C173.625 456.4375 173.625 456.4375 171.6966095 453.37594604 C169.9627093 451.30144714 168.9989054 450.52995468 166.34990501 449.87494278 C163.4166852 449.65729499 160.53378286 449.63025255 157.5925293 449.66455078 C156.47989212 449.65392105 155.36725494 449.64329132 154.22090149 449.63233948 C150.54654908 449.60425487 146.8736297 449.61835797 143.19921875 449.6328125 C140.65044396 449.62156459 138.10167954 449.60768494 135.55293274 449.59127808 C129.53221679 449.55887526 123.51204106 449.55299724 117.49128896 449.56000316 C110.63508187 449.56649863 103.77914114 449.53905945 96.92301309 449.50880075 C82.82364866 449.44733351 68.72448285 449.42838057 54.625 449.4375 C54.34269531 450.0459375 54.06039062 450.654375 53.76953125 451.28125 C52.19686545 454.24408795 50.07412601 456.15924325 47.625 458.4375 C46.92375 459.118125 46.2225 459.79875 45.5 460.5 C36.89164688 466.30128145 27.82947769 467.54414998 17.625 466.4375 C8.73088362 464.67963145 2.75706444 459.95356847 -3.375 453.4375 C-4.035 452.4475 -4.695 451.4575 -5.375 450.4375 C-8.13791061 450.1486294 -10.68888072 450.04458702 -13.453125 450.06640625 C-15.10547072 450.04901455 -16.75781443 450.03143028 -18.41015625 450.01367188 C-21.01485053 450.00362177 -23.61940828 449.99999632 -26.22412109 450.00170898 C-28.73836789 449.99812471 -31.25156576 449.97071929 -33.765625 449.94140625 C-34.53771301 449.94958878 -35.30980103 449.9577713 -36.10528564 449.96620178 C-41.30925711 449.89503728 -44.2191465 448.82926222 -48.375 445.4375 C-52.12462508 441.05368886 -51.85907535 436.50012582 -51.8125 431 C-51.8424707 429.74993164 -51.8424707 429.74993164 -51.87304688 428.47460938 C-51.86862138 422.87635587 -51.09193434 419.69432424 -47.375 415.4375 C-46.715 415.4375 -46.055 415.4375 -45.375 415.4375 C-45.37960896 414.64973301 -45.38421793 413.86196602 -45.38896656 413.0503273 C-45.49959665 393.84387215 -45.58222974 374.63748096 -45.63406086 355.43077469 C-45.65979505 346.14237239 -45.69485357 336.85418335 -45.75219727 327.56591797 C-45.80217931 319.46616712 -45.83432577 311.36657078 -45.84544247 303.26666999 C-45.8519363 298.98146153 -45.86709753 294.69669495 -45.90365028 290.41162872 C-45.93784444 286.36992822 -45.94800637 282.32884734 -45.94053841 278.28701591 C-45.94190259 276.81169442 -45.95169513 275.33635001 -45.97102737 273.86115456 C-46.11320366 262.44215218 -44.33200935 251.58473339 -36.17578125 242.96484375 C-26.93840423 235.13010532 -18.30489004 233.13237114 -6.48901367 233.32495117 C-4.01702503 233.347409 -1.54503501 233.36971533 0.92695618 233.39189148 C2.88829719 233.41481042 2.88829719 233.41481042 4.88926125 233.43819237 C8.99839164 233.48424814 13.10736602 233.50300256 17.21672058 233.51521301 C18.26080754 233.51846259 18.26080754 233.51846259 19.32598716 233.52177781 C20.74922728 233.52611299 22.17246765 233.53036543 23.59570825 233.53453696 C33.15322228 233.5632016 42.70960376 233.60719064 52.26635742 233.7355957 C58.72468651 233.82216773 65.18147916 233.8614843 71.6403982 233.84834272 C75.04893471 233.84321397 78.45370718 233.8605971 81.86149025 233.93605614 C97.55623669 234.23718748 108.63477553 233.74623255 120.4019928 222.61668396 C120.95159227 222.0675276 121.50119175 221.51837124 122.06744576 220.95257378 C124.18381443 218.89392658 126.50741938 217.19516404 128.9140625 215.4921875 C129.64882812 214.95207031 130.38359375 214.41195312 131.140625 213.85546875 C131.83671875 213.34628906 132.5328125 212.83710938 133.25 212.3125 C133.95382813 211.79558594 134.65765625 211.27867187 135.3828125 210.74609375 C136.84247564 209.67447486 138.30271599 208.60364168 139.76358032 207.53366089 C143.32296194 204.92620117 146.8809839 202.31689004 150.43896484 199.70751953 C151.47811287 198.94544945 151.47811287 198.94544945 152.53825378 198.16798401 C154.23384496 196.92450175 155.92942374 195.68100259 157.625 194.4375 C156.1173558 194.42870064 156.1173558 194.42870064 154.57925415 194.41972351 C145.07558577 194.36234105 135.57214281 194.28949911 126.06870461 194.20178509 C121.18367815 194.15718741 116.29873306 194.11790824 111.41357422 194.09106445 C106.6931115 194.0649253 101.97296368 194.0244488 97.25269699 193.97431374 C95.45796013 193.95771648 93.66316889 193.94615797 91.86836624 193.93988609 C69.22424022 193.85280031 69.22424022 193.85280031 60.375 186.9375 C59.45847656 186.23238281 58.54195313 185.52726563 57.59765625 184.80078125 C56.12619141 183.63095703 56.12619141 183.63095703 54.625 182.4375 C53.52036233 181.57575652 52.41486163 180.71511844 51.30859375 179.85546875 C48.33554146 177.5380642 45.37763607 175.20208568 42.42333984 172.86083984 C39.49706949 170.54477194 36.56062813 168.24168648 33.625 165.9375 C32.45828248 165.02089806 31.29161586 164.10423133 30.125 163.1875 C29.5475 162.73375 28.97 162.28 28.375 161.8125 C26.625 160.4375 24.875 159.0625 23.125 157.6875 C22.54717773 157.23358887 21.96935547 156.77967773 21.37402344 156.31201172 C20.21025021 155.39743281 19.04683717 154.48239538 17.88378906 153.56689453 C14.92567437 151.23934715 11.96126073 148.92069213 8.984375 146.6171875 C-14.25316953 128.60293284 -14.25316953 128.60293284 -16.375 117.4375 C-16.45673345 115.19396063 -16.48250277 112.94813108 -16.47265625 110.703125 C-16.46943359 109.40761719 -16.46621094 108.11210937 -16.46289062 106.77734375 C-16.45453598 105.41406183 -16.44607104 104.05078058 -16.4375 102.6875 C-16.43248168 101.30859535 -16.42791935 99.92968896 -16.42382812 98.55078125 C-16.41204093 95.17964341 -16.39558635 91.80859372 -16.375 88.4375 C-17.01937012 88.45321045 -17.66374023 88.4689209 -18.32763672 88.48510742 C-21.30166529 88.54820901 -24.27555229 88.58672586 -27.25 88.625 C-28.26320312 88.65013672 -29.27640625 88.67527344 -30.3203125 88.70117188 C-42.33650128 88.81671215 -50.60013389 85.87985735 -59.28515625 77.62109375 C-66.50665966 70.03161564 -68.7982635 62.35711172 -68.90625 52.00390625 C-68.375 49.4375 -68.375 49.4375 -66.64556885 47.79838562 C-64.00816819 46.2176361 -62.56633457 46.07283157 -59.51464844 46.09692383 C-58.55395447 46.09715042 -57.5932605 46.09737701 -56.60345459 46.09761047 C-55.05951019 46.12083626 -55.05951019 46.12083626 -53.484375 46.14453125 C-51.89474945 46.15089851 -51.89474945 46.15089851 -50.27301025 46.15739441 C-46.89008113 46.1741797 -43.50774891 46.21183245 -40.125 46.25 C-37.83073777 46.26504699 -35.5364662 46.27873537 -33.2421875 46.29101562 C-27.6195882 46.32408272 -21.99733675 46.37428097 -16.375 46.4375 C-16.39071045 45.15061279 -16.4064209 43.86372559 -16.42260742 42.5378418 C-16.47685775 37.76886236 -16.5113323 32.99991026 -16.53979492 28.23071289 C-16.55489271 26.16556209 -16.57537274 24.1004434 -16.60131836 22.03540039 C-16.63765795 19.06909261 -16.6547163 16.10320829 -16.66796875 13.13671875 C-16.68345261 12.2116301 -16.69893646 11.28654144 -16.71488953 10.3334198 C-16.71511612 9.47275406 -16.71534271 8.61208832 -16.71557617 7.7253418 C-16.72223801 6.96811325 -16.72889984 6.2108847 -16.73576355 5.43070984 C-15.35730494 -2.18524045 -5.78614661 -0.03277426 0 0 Z M269.625 367.4375 C269.625 373.0475 269.625 378.6575 269.625 384.4375 C273.915 384.4375 278.205 384.4375 282.625 384.4375 C281.7175 383.40625 280.81 382.375 279.875 381.3125 C276.20201873 377.02446762 272.99936568 372.58195897 270.625 367.4375 C270.295 367.4375 269.965 367.4375 269.625 367.4375 Z M329.625 379.4375 C328.305 381.0875 326.985 382.7375 325.625 384.4375 C328.595 384.4375 331.565 384.4375 334.625 384.4375 C332.975 382.7875 331.325 381.1375 329.625 379.4375 Z " fill="#3A3F4D" transform="translate(68.375,22.5625)"/>
<path d="M0 0 C0.78904461 -0.00768229 1.57808921 -0.01536458 2.39104426 -0.02327967 C3.68236689 -0.02068022 3.68236689 -0.02068022 4.99977684 -0.01802826 C5.91902171 -0.0239705 6.83826659 -0.02991275 7.78536737 -0.03603506 C10.87285491 -0.05341062 13.96018737 -0.05642565 17.04771996 -0.0594101 C19.25866083 -0.06866648 21.46959851 -0.0787158 23.68053246 -0.08950043 C29.69317074 -0.11575533 35.70576436 -0.12864005 41.71845102 -0.13752174 C45.47546458 -0.14338306 49.23246593 -0.15159272 52.98947334 -0.16053009 C63.39859013 -0.18474956 73.8076983 -0.20551218 84.21684265 -0.21228027 C85.21587871 -0.21293897 85.21587871 -0.21293897 86.23509731 -0.21361098 C87.23648419 -0.21426581 87.23648419 -0.21426581 88.25810111 -0.21493387 C89.61082562 -0.21582079 90.96355013 -0.21671392 92.31627464 -0.21761322 C92.98726847 -0.21805608 93.6582623 -0.21849894 94.34958927 -0.21895522 C105.2129345 -0.22684488 116.07601088 -0.26173344 126.93925233 -0.30833226 C138.10168537 -0.35582643 149.26402057 -0.38017173 160.42656457 -0.38301611 C166.6901667 -0.38511118 172.95338979 -0.39690371 179.21689796 -0.43265533 C185.1119954 -0.4656486 191.00642959 -0.469913 196.90158653 -0.45237732 C199.06145951 -0.45083814 201.22136836 -0.45950167 203.3811512 -0.47929382 C224.63836684 -0.66261801 224.63836684 -0.66261801 232.00621605 6.26285553 C235.58617842 10.00683143 237.20411871 13.52337191 238.6351223 18.49723053 C238.89494896 19.39151764 239.15477562 20.28580475 239.42247581 21.20719147 C239.71142723 22.22474518 239.71142723 22.22474518 240.00621605 23.26285553 C239.19046608 23.26872177 238.37471611 23.27458801 237.53424644 23.28063202 C229.83905475 23.33858374 222.14418592 23.41067433 214.44928265 23.49857044 C210.49342773 23.54326008 206.53767547 23.5825191 202.5816555 23.60929108 C198.76242847 23.63533842 194.94359675 23.67575038 191.12461472 23.72604179 C189.66905898 23.74270095 188.21343489 23.75422118 186.75779724 23.76046944 C184.71559087 23.77012138 182.67439358 23.79819076 180.63243675 23.83048248 C178.89036697 23.84713707 178.89036697 23.84713707 177.11310387 23.86412811 C173.62502625 24.31177613 171.77047151 25.10860555 169.00621605 27.26285553 C166.90358235 30.28600186 166.74594499 32.85730113 166.71568871 36.48697662 C166.702929 37.5284082 166.6901693 38.56983978 166.67702293 39.6428299 C166.67479729 40.76267273 166.67257164 41.88251556 166.67027855 43.03629303 C166.66362175 44.19279358 166.65696495 45.34929413 166.65010643 46.54084015 C166.63998281 48.98689941 166.63528932 51.43298628 166.63561058 53.87906647 C166.63124062 57.61683545 166.59492457 61.3534207 166.5569973 65.09098053 C166.55112846 67.46858066 166.54715952 69.8461864 166.54527855 72.22379303 C166.523722 73.89748459 166.523722 73.89748459 166.50172997 75.6049881 C166.5378949 81.76291219 166.71103543 85.6749719 171.00621605 90.26285553 C174.64865533 93.16650808 179.47183974 92.61508106 183.92809105 92.67691803 C185.21806999 92.70596725 185.21806999 92.70596725 186.53410912 92.73560333 C189.27471126 92.79527367 192.01535569 92.84173413 194.75621605 92.88785553 C196.61691122 92.92604687 198.47758893 92.96509928 200.3382473 93.00504303 C204.89409469 93.10096488 209.45002484 93.18504221 214.00621605 93.26285553 C214.13149681 93.90311676 214.25677757 94.54337799 214.38585472 95.20304108 C214.96881614 98.1231358 215.58092183 101.03638182 216.19371605 103.95035553 C216.39029808 104.95775787 216.58688011 105.96516022 216.78941917 107.0030899 C218.06423846 112.94570905 219.09183389 116.53983874 224.00621605 120.26285553 C227.30581745 121.91265623 230.99749489 121.64543914 234.63121605 121.82535553 C235.83391136 121.89013092 235.83391136 121.89013092 237.06090355 121.9562149 C239.04246715 122.0623701 241.02431876 122.16312408 243.00621605 122.26285553 C242.93660667 123.24125397 242.8669973 124.2196524 242.79527855 125.22769928 C242.49060278 132.60520542 242.31456862 138.52728889 247.19371605 144.52457428 C254.10425536 151.15213892 261.72816357 150.90600736 271.00621605 151.26285553 C271.00621605 156.87285553 271.00621605 162.48285553 271.00621605 168.26285553 C266.96547901 168.42407556 262.9329689 168.56317388 258.89073753 168.64737701 C257.51795638 168.68247699 256.14543507 168.73017375 254.77355003 168.7909317 C243.30983002 169.28573862 243.30983002 169.28573862 240.15147972 166.80753326 C238.91246605 164.97379303 238.91246605 164.97379303 237.92931175 163.04679108 C235.45330199 158.26175978 228.7473508 155.45190823 223.9710598 153.38004303 C215.49021517 150.82318541 205.48302788 151.12314 197.4319973 154.78629303 C191.77999604 158.22664162 186.67828166 162.75475712 183.00621605 168.26285553 C180.98646927 168.65713882 180.98646927 168.65713882 178.4536953 168.68418121 C177.01547165 168.70987686 177.01547165 168.70987686 175.54819298 168.73609161 C174.49261696 168.73944519 173.43704094 168.74279877 172.34947777 168.74625397 C171.24037544 168.76114868 170.13127312 168.7760434 168.98856163 168.79138947 C165.3042862 168.83534884 161.6203986 168.85567821 157.93590355 168.87223053 C155.37959847 168.88948129 152.82329354 168.90675453 150.26698875 168.92404938 C145.58530739 168.95157132 140.90374278 168.97045831 136.22200096 168.97953963 C129.34175919 168.99295953 122.46331227 169.04548291 115.58361614 169.13254142 C109.61851343 169.20539187 103.65385397 169.22838175 97.68828773 169.23356628 C95.15491166 169.24264039 92.62154283 169.26670867 90.08845711 169.30612183 C86.53737384 169.3574156 82.99062701 169.35164507 79.43932152 169.33219147 C78.39589088 169.35983582 77.35246025 169.38748016 76.27741051 169.41596222 C71.84704385 169.34010126 69.09811085 169.18430543 65.63692665 166.26341248 C63.49574852 163.83078766 63.49574852 163.83078766 61.67317963 161.40458298 C59.44749412 158.54500535 57.03236553 157.23798043 53.75621605 155.76285553 C52.7610598 155.29879303 51.76590355 154.83473053 50.74059105 154.35660553 C42.87064214 151.20862597 34.33263371 150.82522299 26.25621605 153.50894928 C20.15846873 156.22408723 16.45845452 158.60883975 12.49840355 163.98160553 C9.93883875 166.97780197 8.63124472 168.12347648 4.74693871 168.98966217 C0.96290753 169.1474779 -2.71349419 169.05009837 -6.49378395 168.82535553 C-7.79315895 168.78475006 -9.09253395 168.74414459 -10.43128395 168.70230865 C-13.62267775 168.59671107 -16.80625448 168.44917695 -19.99378395 168.26285553 C-19.99378395 164.63285553 -19.99378395 161.00285553 -19.99378395 157.26285553 C-18.65702614 157.21387115 -17.32026833 157.16488678 -15.9430027 157.11441803 C-14.18907557 157.03938371 -12.43517034 156.96383617 -10.68128395 156.88785553 C-9.35967262 156.84144928 -9.35967262 156.84144928 -8.01136208 156.79410553 C-7.16380348 156.75543365 -6.31624489 156.71676178 -5.4430027 156.67691803 C-4.66271706 156.64549713 -3.88243141 156.61407623 -3.07850075 156.58170319 C-0.69222628 156.36697664 -0.69222628 156.36697664 2.00621605 154.26285553 C2.33621605 149.31285553 2.66621605 144.36285553 3.00621605 139.26285553 C62.90121605 138.76785553 62.90121605 138.76785553 124.00621605 138.26285553 C124.00621605 135.62285553 124.00621605 132.98285553 124.00621605 130.26285553 C122.38140565 128.63804513 120.57569062 129.12102688 118.33029747 129.10463715 C117.31922432 129.09484833 116.30815117 129.08505951 115.26643944 129.07497406 C114.14794609 129.0692186 113.02945274 129.06346313 111.87706566 129.05753326 C110.70649117 129.04763367 109.53591667 129.03773407 108.32987022 129.02753448 C105.11103676 129.00128498 101.8922088 128.97944851 98.67333102 128.9595325 C95.31271261 128.93770982 91.95213998 128.910303 88.59155846 128.88347626 C82.22382585 128.83349893 75.8560679 128.78857888 69.4882856 128.74545389 C62.24048624 128.69612449 54.99273281 128.64119048 47.74497783 128.5857743 C32.83210001 128.47187692 17.91917897 128.36505486 3.00621605 128.26285553 C2.99163353 127.63717682 2.97705101 127.01149811 2.9620266 126.36685944 C2.887688 123.53989151 2.79098371 120.71412345 2.69371605 117.88785553 C2.67115746 116.90301178 2.64859886 115.91816803 2.62535667 114.90348053 C2.57218285 113.49195709 2.57218285 113.49195709 2.5179348 112.05191803 C2.49175072 111.18260651 2.46556664 110.31329498 2.4385891 109.41764069 C2.19276386 106.87685526 2.19276386 106.87685526 -0.99378395 105.26285553 C-3.11716166 104.8985218 -3.11716166 104.8985218 -5.4430027 104.84879303 C-6.29056129 104.81012115 -7.13811989 104.77144928 -8.01136208 104.73160553 C-8.89243629 104.70066803 -9.77351051 104.66973053 -10.68128395 104.63785553 C-11.57395973 104.59918365 -12.46663551 104.56051178 -13.38636208 104.52066803 C-15.58863015 104.42645335 -17.79089117 104.34083965 -19.99378395 104.26285553 C-20.08661294 93.05770147 -20.1576145 81.85263945 -20.20103264 70.64717865 C-20.22187504 65.44357434 -20.2501316 60.24023382 -20.29554176 55.03678131 C-20.33911878 50.01173065 -20.36294622 44.98693316 -20.37329292 39.96170807 C-20.38066302 38.04801195 -20.3950551 36.13432912 -20.41670418 34.22074127 C-20.44589594 31.53265585 -20.4497334 28.84560613 -20.44788551 26.15738678 C-20.46226662 25.37263474 -20.47664772 24.58788269 -20.49146461 23.77935028 C-20.44248106 17.16024544 -18.41636936 11.97880089 -13.99378395 7.02066803 C-13.33378395 6.4818399 -12.67378395 5.94301178 -11.99378395 5.38785553 C-11.33378395 4.83355865 -10.67378395 4.27926178 -9.99378395 3.70816803 C-6.70075303 1.32843865 -4.09747883 0.01503101 0 0 Z " fill="#FDD698" transform="translate(54.993783950805664,267.73714447021484)"/>
<path d="M0 0 C17.93290005 0 27.95447988 1.21602614 40.34375 13.13647461 C44.23032886 17.05487168 47.15954095 21.36882661 50.125 26.00390625 C51.25512936 27.73117147 52.38534014 29.45838341 53.515625 31.18554688 C55.2629747 33.87806731 57.00670275 36.57287897 58.74804688 39.26928711 C60.44808036 41.89511218 62.16097257 44.51220222 63.875 47.12890625 C64.38562988 47.92905655 64.89625977 48.72920685 65.42236328 49.55360413 C69.66723396 56.02021667 74.62442019 60.98928298 81.4375 64.75 C82.11683594 65.13671875 82.79617187 65.5234375 83.49609375 65.921875 C90.63441594 68.99547395 97.37438973 69.28695123 105.03109741 69.2515564 C106.12118563 69.25452654 107.21127385 69.25749667 108.33439505 69.26055682 C111.97607642 69.26817696 115.61759557 69.26171085 119.25927734 69.25537109 C121.87474171 69.2581219 124.49020524 69.26180234 127.10566711 69.26634216 C132.73295313 69.2749587 138.3602077 69.27678725 143.98749924 69.27439499 C152.13442256 69.27129137 160.28127668 69.28295716 168.42818256 69.29894479 C181.66175093 69.32488528 194.89531935 69.34491507 208.12890625 69.35839844 C209.31592679 69.35961399 209.31592679 69.35961399 210.52692755 69.3608541 C221.75600766 69.37207464 232.98508282 69.37735686 244.21416779 69.38024123 C245.40027876 69.38054721 245.40027876 69.38054721 246.61035156 69.38085938 C247.79500956 69.38115928 247.79500956 69.38115928 249.00360005 69.38146524 C262.18666388 69.38520179 275.36965253 69.40431072 288.5526787 69.43595374 C296.67589353 69.45483731 304.79891529 69.46084904 312.92214598 69.45013656 C319.15020426 69.44305457 325.37806192 69.45662627 331.60608482 69.47775459 C334.15617698 69.48307424 336.70629397 69.48158374 339.25637627 69.47271919 C342.7428842 69.46157846 346.22848265 69.47505375 349.7149353 69.49447632 C350.71923313 69.48535166 351.72353095 69.476227 352.75826204 69.46682584 C362.28096361 69.56974883 369.7557877 72.30077452 376.8203125 78.73046875 C378 80 378 80 378 81 C376.70900391 81.0093457 375.41800781 81.01869141 374.08789062 81.02832031 C369.27179184 81.06836561 364.45632209 81.13416485 359.640625 81.20751953 C357.56128048 81.23564499 355.48183071 81.25690121 353.40234375 81.27099609 C350.40310108 81.29254238 347.40511255 81.33925276 344.40625 81.390625 C343.48509399 81.39185364 342.56393799 81.39308228 341.61486816 81.39434814 C334.75218551 81.54806997 329.21405667 82.92737876 324.14697266 87.77148438 C320.76629182 93.33195193 320.23641695 98.06050753 320.375 104.5 C320.34599609 105.84771484 320.34599609 105.84771484 320.31640625 107.22265625 C320.36173583 113.45094087 321.51011466 118.46890014 326 123 C332.23818419 128.15531239 339.04963287 127.44815723 346.77217293 127.27189827 C349.1441055 127.22167269 351.51439799 127.20318576 353.88682556 127.19371033 C360.62833029 127.1639006 367.36843606 127.10103968 374.10864258 126.96264648 C413.83021417 126.19213782 413.83021417 126.19213782 429 139 C430.71268341 140.96350028 432.34683737 142.98549821 434 145 C384.93694341 145.25189487 335.87395229 145.44566562 286.81037601 145.56171862 C281.01518451 145.57547605 275.21999429 145.58971362 269.42480469 145.60424805 C268.27110912 145.60713346 267.11741355 145.61001888 265.9287575 145.61299173 C247.2594555 145.6608285 228.5905269 145.7475432 209.92144625 145.84868076 C190.75865166 145.95162548 171.59605234 146.01266295 152.43299258 146.03497344 C140.61249987 146.05005098 128.79306264 146.09763248 116.97289492 146.18708114 C108.86224994 146.24532362 100.75214889 146.26277961 92.64131008 146.24851515 C87.96453689 146.24148377 83.28960499 146.25209426 78.61316109 146.31126022 C74.32340949 146.36513497 70.03672134 146.36728644 65.74682315 146.32988784 C64.20278048 146.32527237 62.65853991 146.33894882 61.1148818 146.37371501 C49.42205805 146.62154884 42.95972089 143.19177726 34.60843964 135.44755647 C31.90357097 133.01324059 29.01124443 130.83960844 26.125 128.625 C24.97430401 127.71866086 23.82431402 126.81142261 22.67578125 125.90234375 C20.74813608 124.37701729 18.81671506 122.85742631 16.87646484 121.34814453 C14.68008544 119.63833867 12.49564598 117.91415653 10.3125 116.1875 C9.28697021 115.39690186 9.28697021 115.39690186 8.24072266 114.59033203 C4.319024 111.46225173 1.73202429 108.85874979 0 104 C-0.04048309 102.33382507 -0.04686798 100.66600755 0 99 C7.1165744 98.89823576 14.2329598 98.82838171 21.35009766 98.78027344 C23.7691143 98.76020935 26.18808276 98.73295157 28.60693359 98.69824219 C32.09224368 98.64949659 35.57691016 98.62697836 39.0625 98.609375 C40.13677246 98.58872986 41.21104492 98.56808472 42.31787109 98.54681396 C49.49638401 98.54468864 55.29032162 99.46219701 60.63615417 104.56034851 C62.07608148 106.12869672 63.38719867 107.7519242 64.6875 109.4375 C65.58502485 110.56296767 66.48474408 111.68668911 67.38671875 112.80859375 C67.81895752 113.34750244 68.25119629 113.88641113 68.6965332 114.44165039 C74.09852337 120.89995779 80.42008775 126.28560953 89.05078125 127.22265625 C92.04411642 127.34851861 94.4000969 127.32721987 97.0625 125.875 C98.44692393 123.10615213 97.57415777 120.96313592 97 118 C96.2265625 117.86464844 95.453125 117.72929687 94.65625 117.58984375 C82.52193026 115.0818841 77.62132907 108.89722202 70.078125 99.51953125 C64.28298572 92.49346953 57.15015848 88.80932679 48.04922485 87.61169434 C44.95072737 87.44781547 41.87230744 87.39422552 38.76953125 87.390625 C37.65309738 87.37408875 36.53666351 87.35755249 35.38639832 87.34051514 C31.86170762 87.29238721 28.33744724 87.27074208 24.8125 87.25 C22.40557772 87.22181097 19.99867517 87.19187949 17.59179688 87.16015625 C11.72790006 87.08663746 5.86423723 87.03684803 0 87 C0 83.37 0 79.74 0 76 C0.92337158 75.98541748 1.84674316 75.97083496 2.7980957 75.95581055 C6.22577204 75.89473692 9.65264662 75.8205839 13.07983398 75.73754883 C14.56279854 75.70430577 16.04588944 75.67627177 17.52905273 75.65356445 C19.66184293 75.62000532 21.79347612 75.56769362 23.92578125 75.51171875 C25.85031128 75.47244263 25.85031128 75.47244263 27.8137207 75.43237305 C30.9357721 75.24757727 30.9357721 75.24757727 32.91088867 73.71411133 C35.03323055 70.37383732 34.57572269 66.73945595 34 63 C31.33370566 53.97014985 27.30982956 46.35989215 19.234375 41.25 C12.59587565 37.70946701 7.73819679 36.54763936 0 35 C0 23.45 0 11.9 0 0 Z " fill="#D8EBFE" transform="translate(64,35)"/>
<path d="M0 0 C1.16090652 -0.00730133 2.32181305 -0.01460266 3.51789856 -0.02212524 C7.32455469 -0.03822949 11.12947879 -0.01120512 14.93603516 0.01806641 C17.60204426 0.01910507 20.26798968 0.0181678 22.93399048 0.01504517 C28.51039931 0.01328588 34.08631885 0.03529557 39.66259766 0.07226562 C46.07647878 0.11454999 52.4896431 0.12162584 58.90363538 0.10914171 C65.11284971 0.09768235 71.32181588 0.10913234 77.53099442 0.1314888 C80.15502547 0.13914594 82.77907785 0.14150883 85.40311813 0.13831711 C89.08295291 0.13756877 92.76173146 0.16301022 96.44140625 0.1953125 C98.04253517 0.18788025 98.04253517 0.18788025 99.67601013 0.18029785 C113.18768131 0.36798311 124.63407819 4.6709243 134.41259766 13.99462891 C136.85009766 16.74462891 136.85009766 16.74462891 136.85009766 18.74462891 C136.01349609 18.74350098 135.17689453 18.74237305 134.31494141 18.74121094 C131.17570189 18.75120575 128.03817636 18.78799957 124.89941406 18.84228516 C122.8870501 18.86913585 120.87435563 18.8657587 118.86181641 18.86181641 C111.75708277 19.00462512 106.76584869 19.34059263 101.26806641 24.07226562 C98.50962212 27.3255961 97.60016251 30.0859652 97.57543945 34.32617188 C97.56590744 35.22745819 97.55637543 36.12874451 97.54655457 37.05734253 C97.54746597 38.02406891 97.54837738 38.99079529 97.54931641 39.98681641 C97.54288872 41.48850876 97.54288872 41.48850876 97.53633118 43.02053833 C97.53059181 45.13705693 97.53008472 47.25359525 97.53442383 49.37011719 C97.53757923 52.60076763 97.51413508 55.8304982 97.48876953 59.06103516 C97.48649598 61.11962775 97.4857933 63.17822281 97.48681641 65.23681641 C97.47760666 66.19949432 97.46839691 67.16217224 97.45890808 68.15402222 C97.49516589 73.43711002 97.85562492 77.19510196 100.85009766 81.74462891 C106.00396397 86.39567899 109.20822947 86.88079143 115.96826172 86.82299805 C117.70794615 86.81688118 119.44763126 86.81095451 121.18731689 86.80519104 C122.11227211 86.80051882 123.03722733 86.7958466 123.99021149 86.79103279 C128.87972364 86.77190734 133.76916813 86.78706136 138.65869141 86.79736328 C144.88503008 86.80961575 151.11068199 86.81129287 157.33691406 86.76879883 C162.36468958 86.73538656 167.39110502 86.74084227 172.41887665 86.77236748 C174.33420203 86.77729312 176.24961926 86.76800229 178.16480255 86.74415779 C193.03421048 86.56993564 193.03421048 86.56993564 197.36274719 89.37005615 C200.45742916 93.17691033 201.60985717 97.09416946 201.61181641 102.00244141 C201.61503906 103.12263672 201.61826172 104.24283203 201.62158203 105.39697266 C201.58000977 107.1159375 201.58000977 107.1159375 201.53759766 108.86962891 C201.55983398 110.60019531 201.55983398 110.60019531 201.58251953 112.36572266 C201.49090679 121.71022264 201.49090679 121.71022264 198.49462891 125.48681641 C194.52858857 128.87288925 191.65595549 128.86896671 186.60493469 128.86488342 C185.29661682 128.86625809 183.98829895 128.86763275 182.64033508 128.86904907 C181.18722511 128.8655099 179.73411537 128.86187509 178.28100586 128.8581543 C176.7534892 128.85787228 175.2259724 128.85803045 173.69845581 128.8585968 C169.54792755 128.8588842 165.39742808 128.85299677 161.24690652 128.84602284 C156.91071483 128.83977972 152.57452251 128.83918475 148.23832703 128.83799744 C140.02545774 128.83488696 131.81260173 128.82667737 123.5997383 128.81664795 C114.25039257 128.80547803 104.90104621 128.79997414 95.55169547 128.79495251 C76.31782179 128.78449454 57.08396127 128.76669958 37.85009766 128.74462891 C36.86009766 124.78462891 35.87009766 120.82462891 34.85009766 116.74462891 C35.87295868 116.73654205 36.8958197 116.7284552 37.94967651 116.72012329 C47.57352432 116.64275051 57.19722921 116.555034 66.82089043 116.45710182 C71.76891127 116.4070847 76.71691019 116.36075531 81.66503906 116.32275391 C86.43727732 116.28596931 91.20933455 116.23962834 95.98141861 116.1865654 C97.80510417 116.16798503 99.62882859 116.15289064 101.45257187 116.14128494 C104.00047222 116.12448451 106.54795468 116.09546532 109.09570312 116.06347656 C109.85527313 116.06131638 110.61484314 116.05915619 111.39743042 116.05693054 C115.58070332 116.12435862 115.58070332 116.12435862 118.85009766 113.74462891 C119.26676432 111.24462891 119.26676432 111.24462891 118.85009766 108.74462891 C115.0810506 106.23193087 112.07485782 106.43781636 107.70678711 106.42578125 C106.87729553 106.41573563 106.04780396 106.40569 105.19317627 106.39533997 C102.44991757 106.36443568 99.70675678 106.34745276 96.96337891 106.33056641 C95.06193698 106.31186058 93.16050341 106.29228761 91.25907898 106.2718811 C86.25321367 106.22049203 81.24732144 106.18090259 76.24133301 106.14373779 C71.13363953 106.10374059 66.02605875 106.05262873 60.91845703 106.00244141 C50.89574966 105.90560191 40.87297875 105.82122282 30.85009766 105.74462891 C30.02944697 103.87318195 29.21893926 101.99728555 28.41259766 100.11962891 C27.96013672 99.07548828 27.50767578 98.03134766 27.04150391 96.95556641 C25.89208061 93.8577764 25.27698542 91.01252837 24.85009766 87.74462891 C25.43590103 87.74098328 26.02170441 87.73733765 26.6252594 87.73358154 C32.741701 87.69165741 38.85739912 87.62224262 44.97338867 87.53710938 C47.25358634 87.5089448 49.53388082 87.4877079 51.81420898 87.47363281 C55.09880984 87.45214142 58.3822522 87.40545719 61.66650391 87.35400391 C62.68031631 87.35277527 63.69412872 87.35154663 64.73866272 87.35028076 C70.94499838 87.22286319 74.9499304 86.6986408 79.85009766 82.74462891 C84.12127277 77.17141193 84.44259369 71.38609609 84.38134766 64.58447266 C84.38517456 63.63576797 84.38900146 62.68706329 84.39294434 61.70960999 C84.39565204 59.71533133 84.3883713 57.72101646 84.37158203 55.72680664 C84.35013214 52.68701591 84.37143499 49.64958194 84.39697266 46.60986328 C84.39432964 44.66389456 84.38920521 42.7179273 84.38134766 40.77197266 C84.38944458 39.8707518 84.3975415 38.96953094 84.40588379 38.04100037 C84.31838054 32.11038362 83.57138733 28.45627368 79.85009766 23.74462891 C73.7175886 18.2337971 65.03931511 19.2315922 57.32851982 19.31990433 C54.86821056 19.34663116 52.40917611 19.34644884 49.94874573 19.33920288 C42.95968146 19.32361516 35.97107262 19.35793277 28.98217773 19.40478516 C24.69333241 19.43169488 20.40525432 19.42946729 16.11638069 19.41032028 C14.48934673 19.40924194 12.86226134 19.41962003 11.23538017 19.44194412 C-3.06919469 19.63769708 -3.06919469 19.63769708 -7.54345703 15.79003906 C-8.42436145 14.78537512 -9.29529908 13.77175864 -10.14990234 12.74462891 C-12.55768093 11.34093096 -12.55768093 11.34093096 -14.83740234 10.49462891 C-17.67725076 9.34456596 -20.41623599 8.1295055 -23.14990234 6.74462891 C-15.30339057 1.64477927 -9.30369521 -0.13274316 0 0 Z " fill="#63C1FB" transform="translate(299.14990234375,249.25537109375)"/>
<path d="M0 0 C2.00351219 0.01307388 4.00704693 0.02302959 6.0105896 0.03001404 C11.25542198 0.05659872 16.49887321 0.12523758 21.74316406 0.20294189 C27.10592979 0.27485911 32.46892114 0.30658617 37.83203125 0.34179688 C48.33393645 0.41661852 58.83482163 0.53591508 69.3359375 0.68359375 C65.77943402 3.59240335 62.38169536 5.85508981 58.27734375 7.93359375 C57.7007048 8.2281546 57.12406586 8.52271545 56.529953 8.82620239 C55.29594466 9.45616448 54.06070423 10.08371802 52.82434082 10.70904541 C49.53654084 12.37274264 46.2585918 14.05561709 42.98046875 15.73828125 C42.3235202 16.07511932 41.66657166 16.4119574 40.98971558 16.75900269 C35.30341209 19.68248749 29.68402114 22.71956463 24.0859375 25.80859375 C16.39290281 30.04812096 8.64018316 34.15245538 0.8359375 38.18359375 C-8.10408541 42.8026746 -16.97871165 47.52367933 -25.79492188 52.375 C-27.4820766 53.30326853 -29.17885758 54.21419896 -30.88354492 55.10986328 C-33.75676368 56.6686252 -33.75676368 56.6686252 -36.5949707 58.80029297 C-48.71713948 67.1141855 -62.43721608 65.61529254 -76.58062744 65.23291016 C-79.97977605 65.14996153 -83.37942051 65.11430258 -86.77929688 65.07421875 C-93.4088163 64.98673125 -100.03616774 64.85342004 -106.6640625 64.68359375 C-104.18494305 62.17195046 -101.77929765 59.91225449 -98.8984375 57.87109375 C-98.18179932 57.3594165 -97.46516113 56.84773926 -96.72680664 56.32055664 C-95.58199829 55.51026001 -95.58199829 55.51026001 -94.4140625 54.68359375 C-88.4688633 50.43411458 -82.55975681 46.14819724 -76.7265625 41.74609375 C-68.57296482 35.59961376 -60.35391725 29.54436036 -52.12695312 23.49658203 C-49.61075261 21.64435116 -47.0979131 19.78764336 -44.5859375 17.9296875 C-43.75102783 17.31270996 -42.91611816 16.69573242 -42.0559082 16.06005859 C-40.4808378 14.89595105 -38.90640001 13.73098679 -37.33276367 12.56494141 C-35.90165884 11.50814017 -34.46047657 10.46480281 -33.00796509 9.43762207 C-30.66442843 7.75900148 -30.66442843 7.75900148 -28.76701355 5.85861206 C-20.35907106 -1.52438172 -10.52462998 -0.2023786 0 0 Z " fill="#B8D7F7" transform="translate(301.6640625,191.31640625)"/>
<path d="M0 0 C21.78 0 43.56 0 66 0 C70.49972063 10.12437141 70.49972063 10.12437141 72.04296875 14.62060547 C72.39012939 15.62550018 72.73729004 16.6303949 73.0949707 17.66574097 C73.45550537 18.72221832 73.81604004 19.77869568 74.1875 20.8671875 C74.76407349 22.5402446 74.76407349 22.5402446 75.35229492 24.24710083 C76.57196626 27.7884506 77.78620685 31.33163169 79 34.875 C80.21485996 38.41085137 81.43086411 41.94630574 82.64770508 45.48147583 C83.40153314 47.67262931 84.15406098 49.86423072 84.9050293 52.05636597 C86.93955867 57.98248166 89.04447519 63.87075745 91.2722168 69.72732544 C92 72 92 72 92 75 C78.47 75 64.94 75 51 75 C47 58 47 58 45.9375 52.5625 C45.35791839 48.75942708 45.35791839 48.75942708 42 47 C40.00406804 46.67478946 40.00406804 46.67478946 37.80395508 46.68115234 C36.95160278 46.66109131 36.09925049 46.64103027 35.22106934 46.62036133 C33.88380798 46.60332153 33.88380798 46.60332153 32.51953125 46.5859375 C31.69690796 46.56829346 30.87428467 46.55064941 30.0267334 46.5324707 C26.95552065 46.46943233 23.88398105 46.42322581 20.8125 46.375 C10.5103125 46.189375 10.5103125 46.189375 0 46 C0 30.82 0 15.64 0 0 Z " fill="#77859A" transform="translate(233,303)"/>
<path d="M0 0 C2.15356375 -0.00435895 4.30505272 -0.0406432 6.45825195 -0.07861328 C7.83780228 -0.08448486 9.21736229 -0.08845197 10.59692383 -0.09033203 C12.46924683 -0.10265869 12.46924683 -0.10265869 14.37939453 -0.11523438 C18.51096552 0.4616954 20.63595493 1.76618136 23.85864258 4.37060547 C26.08224046 7.70600229 26.11452926 8.78845563 26.13330078 12.68066406 C26.1475988 14.30782852 26.1475988 14.30782852 26.16218567 15.96786499 C26.16127426 17.13975372 26.16036285 18.31164246 26.15942383 19.51904297 C26.16370895 20.72372223 26.16799408 21.92840149 26.17240906 23.16958618 C26.17815668 25.71998465 26.17864946 28.27039952 26.17431641 30.82080078 C26.17116077 34.72310401 26.19459649 38.62464626 26.2199707 42.52685547 C26.22224406 45.00341701 26.22294702 47.47998059 26.22192383 49.95654297 C26.23113358 51.12438324 26.24034332 52.29222351 26.24983215 53.49545288 C26.24360336 54.58653351 26.23737457 55.67761414 26.23095703 56.80175781 C26.23158646 57.75867523 26.23221588 58.71559265 26.23286438 59.70150757 C25.78348644 62.90664878 24.75615944 64.76705052 22.85864258 67.37060547 C16.39421383 71.54089194 9.79893364 70.84850192 2.35864258 70.80810547 C1.05282227 70.82808594 -0.25299805 70.84806641 -1.59838867 70.86865234 C-2.86038086 70.86800781 -4.12237305 70.86736328 -5.42260742 70.86669922 C-6.56793945 70.86855225 -7.71327148 70.87040527 -8.89331055 70.87231445 C-12.89135201 70.25475769 -15.02930181 68.92344604 -18.14135742 66.37060547 C-20.1665319 63.20377667 -20.40211773 60.6685109 -20.43188477 56.94702148 C-20.44464447 55.86232071 -20.45740417 54.77761993 -20.47055054 53.66004944 C-20.47277618 52.49332199 -20.47500183 51.32659454 -20.47729492 50.12451172 C-20.48728012 48.31961525 -20.48728012 48.31961525 -20.49746704 46.47825623 C-20.50759112 43.93384327 -20.51228414 41.38940378 -20.51196289 38.8449707 C-20.51633689 34.95137856 -20.55266392 31.05891899 -20.59057617 27.16552734 C-20.59644413 24.69352601 -20.60041366 22.2215193 -20.60229492 19.74951172 C-20.61666595 18.5848085 -20.63103699 17.42010529 -20.64584351 16.22010803 C-20.60022616 8.15528196 -20.60022616 8.15528196 -18.30004883 4.22192383 C-12.58375339 -0.6804363 -7.15396938 -0.00162387 0 0 Z " fill="#3A3F4C" transform="translate(125.141357421875,290.62939453125)"/>
<path d="M0 0 C1.26650391 -0.00386719 2.53300781 -0.00773437 3.83789062 -0.01171875 C5.14822266 -0.00011719 6.45855469 0.01148438 7.80859375 0.0234375 C9.12279297 0.01183594 10.43699219 0.00023437 11.79101562 -0.01171875 C13.68883789 -0.00591797 13.68883789 -0.00591797 15.625 0 C16.77556885 0.00338379 17.9261377 0.00676758 19.11157227 0.01025391 C23.41098187 0.5426989 25.94716097 1.98200722 28.86294556 5.1615448 C30.579513 7.93765888 30.63205619 9.66314503 30.65014648 12.91381836 C30.66283066 14.01853989 30.67551483 15.12326141 30.68858337 16.26145935 C30.68564774 17.45006058 30.6827121 18.6386618 30.6796875 19.86328125 C30.68492935 21.08874161 30.6901712 22.31420197 30.6955719 23.57679749 C30.7019952 26.16829674 30.70065117 28.75982513 30.69213867 31.35131836 C30.68363345 35.31742269 30.71238142 39.28208503 30.74414062 43.24804688 C30.74575281 45.76562457 30.74517478 48.28320481 30.7421875 50.80078125 C30.75903847 52.58064674 30.75903847 52.58064674 30.77622986 54.39646912 C30.70719013 62.54993894 30.70719013 62.54993894 28.52758789 66.56079102 C22.11017453 71.7297445 14.74816593 70.83641331 6.87109375 70.8984375 C5.56914062 70.9396875 4.2671875 70.9809375 2.92578125 71.0234375 C-7.7943819 71.11094904 -7.7943819 71.11094904 -12.10546875 67.5546875 C-15.43037606 64.1546231 -15.87982094 61.0166649 -15.91503906 56.37963867 C-15.92464661 55.35815231 -15.93425415 54.33666595 -15.94415283 53.28422546 C-15.94840271 52.18109512 -15.95265259 51.07796478 -15.95703125 49.94140625 C-15.96273132 48.8056868 -15.9684314 47.66996735 -15.9743042 46.49983215 C-15.98375578 44.09486829 -15.99028881 41.68989146 -15.99414062 39.28491211 C-16.00384026 35.61093462 -16.03486051 31.9375179 -16.06640625 28.26367188 C-16.07293697 25.92708666 -16.07818717 23.59049743 -16.08203125 21.25390625 C-16.09437805 20.1568486 -16.10672485 19.05979095 -16.1194458 17.92948914 C-16.0899572 7.79951262 -16.0899572 7.79951262 -12.75390625 3.3984375 C-8.49736306 0.55072105 -5.06073597 0.0148689 0 0 Z " fill="#3B3F4D" transform="translate(178.75390625,290.6015625)"/>
<path d="M0 0 C2.08960392 -0.00966514 4.17820682 -0.04066833 6.26757812 -0.07226562 C7.60611397 -0.07880015 8.94465684 -0.08404886 10.28320312 -0.08789062 C11.49588867 -0.09723633 12.70857422 -0.10658203 13.95800781 -0.11621094 C17.8434555 0.29072978 20.12329971 1.05275093 23.36132812 3.24023438 C27.38231822 8.56706462 26.79531216 14.64048454 26.75976562 21.02539062 C26.7626358 22.15923691 26.76550598 23.29308319 26.76846313 24.46128845 C26.77050021 26.85253399 26.7649954 29.24379632 26.75244141 31.63500977 C26.73636865 35.29351028 26.7523108 38.95090851 26.77148438 42.609375 C26.76950217 44.93554931 26.76565898 47.26172294 26.75976562 49.58789062 C26.76887466 51.22710228 26.76887466 51.22710228 26.77816772 52.89942932 C26.68830799 62.60461544 26.68830799 62.60461544 23.36132812 66.24023438 C19.08787952 69.75972239 16.14064055 70.74982628 10.64257812 70.77148438 C9.38058594 70.77664063 8.11859375 70.78179687 6.81835938 70.78710938 C5.51253906 70.77164063 4.20671875 70.75617188 2.86132812 70.74023438 C0.90259766 70.7634375 0.90259766 70.7634375 -1.09570312 70.78710938 C-2.35769531 70.78195312 -3.6196875 70.77679688 -4.91992188 70.77148438 C-6.06525391 70.76697266 -7.21058594 70.76246094 -8.390625 70.7578125 C-12.35416678 70.12621985 -14.51872182 68.72493106 -17.63867188 66.24023438 C-19.86755866 62.89690419 -19.90219529 61.76316443 -19.94506836 57.85424805 C-19.96105576 56.75267868 -19.97704315 55.65110931 -19.99351501 54.51615906 C-19.99887772 53.3255336 -20.00424042 52.13490814 -20.00976562 50.90820312 C-20.0187941 49.68369949 -20.02782257 48.45919586 -20.03712463 47.19758606 C-20.05164488 44.60432385 -20.06051825 42.01102485 -20.06420898 39.41772461 C-20.07609422 35.45363408 -20.12525765 31.49110511 -20.17578125 27.52734375 C-20.18524644 25.00847114 -20.19248101 22.48958897 -20.19726562 19.97070312 C-20.21679794 18.78615036 -20.23633026 17.6015976 -20.25645447 16.38114929 C-20.20621238 7.19675363 -20.20621238 7.19675363 -17.22875977 3.50708008 C-12.10205353 -0.97981477 -6.48385949 0.01816207 0 0 Z " fill="#3B3F4D" transform="translate(66.638671875,290.759765625)"/>
<path d="M0 0 C8.40583263 -0.06952485 16.81154502 -0.12282366 25.21759415 -0.15543652 C29.12091481 -0.17108945 33.02403869 -0.19232061 36.92724609 -0.22631836 C40.69440392 -0.25892557 44.46137252 -0.27685582 48.22866058 -0.28463173 C49.66558562 -0.29017284 51.10250035 -0.30099336 52.53934479 -0.31719017 C54.55249422 -0.33897989 56.56583424 -0.34022554 58.57910156 -0.34057617 C59.72493713 -0.34723801 60.87077271 -0.35389984 62.05133057 -0.36076355 C65.34433008 0.04212807 66.7347596 0.59273014 69 3 C69.50120544 4.89709473 69.50120544 4.89709473 69.50170898 7.05664062 C69.51108994 7.86758179 69.52047089 8.67852295 69.53013611 9.51403809 C69.51890213 10.38596802 69.50766815 11.25789795 69.49609375 12.15625 C69.49754898 13.05492798 69.49900421 13.95360596 69.50050354 14.8795166 C69.4988438 16.77924848 69.4872741 18.67899369 69.46655273 20.57861328 C69.43760754 23.48918679 69.44593983 26.3979384 69.45898438 29.30859375 C69.45274673 31.1536547 69.44435559 32.99870989 69.43359375 34.84375 C69.43652939 35.71567993 69.43946503 36.58760986 69.44248962 37.48596191 C69.42980545 38.29690308 69.41712128 39.10784424 69.40405273 39.94335938 C69.39864975 40.65600952 69.39324677 41.36865967 69.38768005 42.10290527 C68.86904252 44.64083446 68.10427797 45.50373381 66 47 C63.74104309 47.36076355 63.74104309 47.36076355 61.06958008 47.34057617 C59.56836357 47.34023628 59.56836357 47.34023628 58.03681946 47.33988953 C56.95861435 47.32440567 55.88040924 47.30892181 54.76953125 47.29296875 C53.66397385 47.28872391 52.55841644 47.28447906 51.4193573 47.28010559 C47.88349188 47.26329437 44.34819355 47.22563685 40.8125 47.1875 C38.41732593 47.17245636 36.02214294 47.1587674 33.62695312 47.14648438 C27.75110815 47.11338285 21.87559458 47.06315893 16 47 C14.04252323 41.27092989 12.08533772 35.5417604 10.12841797 29.8125 C9.4631328 27.86488172 8.7977691 25.91729027 8.13232422 23.96972656 C7.17394521 21.1647847 6.21585189 18.35974538 5.2578125 15.5546875 C4.96190216 14.68883026 4.66599182 13.82297302 4.3611145 12.93087769 C4.08097504 12.11048004 3.80083557 11.2900824 3.51220703 10.44482422 C3.26793976 9.72978729 3.02367249 9.01475037 2.77200317 8.27804565 C1.83801177 5.5220012 0.91847643 2.76124891 0 0 Z " fill="#44A7F2" transform="translate(303,279)"/>
<path d="M0 0 C0.7395694 -0.03311783 1.47913879 -0.06623566 2.24111938 -0.10035706 C4.61990237 -0.18431282 6.99485167 -0.2221326 9.375 -0.2421875 C10.57851105 -0.25555649 10.57851105 -0.25555649 11.80633545 -0.26919556 C26.94313794 -0.29113185 26.94313794 -0.29113185 32.0390625 3.62890625 C34.7055103 6.44048322 36.61282668 9.5984895 38.37451172 13.03613281 C39.90400207 15.85923311 41.96442307 18.15349601 44.0625 20.5703125 C45.500589 22.34066755 46.93809295 24.11149799 48.375 25.8828125 C49.8952718 27.73743961 51.41610869 29.59160364 52.9375 31.4453125 C55.94573577 35.12616437 58.94992615 38.81016387 61.9375 42.5078125 C62.59878906 43.32507813 63.26007813 44.14234375 63.94140625 44.984375 C65.375 46.8828125 65.375 46.8828125 65.375 47.8828125 C55.9261311 47.97548349 46.47741858 48.0465625 37.02819443 48.09006119 C32.64054058 48.11093821 28.25319759 48.1392576 23.86572266 48.18457031 C19.63171584 48.22802451 15.39800806 48.25194874 11.16379547 48.26232147 C9.54822329 48.26971367 7.93266751 48.284149 6.3172226 48.30573273 C4.05454617 48.33476232 1.79310605 48.33876888 -0.46972656 48.33691406 C-2.40165863 48.35023773 -2.40165863 48.35023773 -4.37261963 48.36383057 C-7.625 47.8828125 -7.625 47.8828125 -10.03985596 46.1026001 C-11.71940307 43.75061331 -12.12913262 42.75081249 -12.14257812 39.91210938 C-12.15518677 39.14451294 -12.16779541 38.3769165 -12.18078613 37.58605957 C-12.17268921 36.76617554 -12.16459229 35.9462915 -12.15625 35.1015625 C-12.1600769 34.25106323 -12.16390381 33.40056396 -12.16784668 32.52429199 C-12.17056458 30.72891046 -12.16321182 28.93348926 -12.14648438 27.13818359 C-12.12507167 24.39200457 -12.14628871 21.64844153 -12.171875 18.90234375 C-12.1692317 17.15624423 -12.16410667 15.41014634 -12.15625 13.6640625 C-12.16434692 12.84417847 -12.17244385 12.02429443 -12.18078613 11.17956543 C-12.12196659 7.59871408 -11.99160721 5.47009701 -10.06835938 2.38916016 C-6.7791308 0.36132839 -3.76737941 0.12732891 0 0 Z " fill="#44A7F1" transform="translate(418.625,278.1171875)"/>
<path d="M0 0 C0.88873306 -0.00524185 1.77746613 -0.0104837 2.69313049 -0.0158844 C4.56827757 -0.02229307 6.4434649 -0.02098258 8.31860352 -0.01245117 C11.17862972 -0.00394425 14.03665545 -0.03271279 16.89648438 -0.06445312 C18.72265565 -0.06606546 20.54883045 -0.06548699 22.375 -0.0625 C23.22517197 -0.07373398 24.07534393 -0.08496796 24.95127869 -0.09654236 C30.34512632 -0.03362804 33.54754681 0.74439347 37.75390625 4.43359375 C42.28904864 10.16708266 41.22902588 16.89778171 41.19140625 23.87109375 C41.22137695 25.8365918 41.22137695 25.8365918 41.25195312 27.84179688 C41.25130859 29.10830078 41.25066406 30.37480469 41.25 31.6796875 C41.25277954 33.40723267 41.25277954 33.40723267 41.25561523 35.16967773 C40.49828019 40.09659363 38.34801034 43.07046436 34.59545898 46.27929688 C30.48728321 47.94812195 26.68590187 47.90133057 22.2890625 47.90234375 C20.92266884 47.91376404 20.92266884 47.91376404 19.52867126 47.92541504 C17.60646296 47.93619691 15.68419615 47.93907693 13.76196289 47.93457031 C10.82924248 47.93359801 7.89913981 47.97523976 4.96679688 48.01953125 C3.09505752 48.02473873 1.2233091 48.02742644 -0.6484375 48.02734375 C-1.52048325 48.04373901 -2.39252899 48.06013428 -3.29100037 48.07702637 C-7.48431422 48.02968742 -10.36250476 47.79443958 -13.72094727 45.14648438 C-19.24126744 39.21572949 -18.61862706 33.94844809 -18.61669922 26.07128906 C-18.62106426 24.07209865 -18.65807905 22.07306718 -18.6953125 20.07421875 C-18.69917969 18.80320313 -18.70304688 17.5321875 -18.70703125 16.22265625 C-18.71524902 15.06459473 -18.7234668 13.9065332 -18.73193359 12.71337891 C-17.99869131 7.76344081 -15.84800681 4.79639918 -12.07397461 1.58569336 C-8.0295306 -0.06204309 -4.32950711 -0.01491425 0 0 Z " fill="#3D4351" transform="translate(262.24609375,115.56640625)"/>
<path d="M0 0 C0.80125809 -0.0127597 1.60251617 -0.02551941 2.42805481 -0.03866577 C3.29057358 -0.04089142 4.15309235 -0.04311707 5.04174805 -0.04541016 C5.933311 -0.05206696 6.82487396 -0.05872375 7.74345398 -0.06558228 C9.63054339 -0.07570835 11.51766861 -0.08039931 13.40478516 -0.08007812 C16.28242616 -0.08444076 19.15852015 -0.12073075 22.03588867 -0.15869141 C23.8711699 -0.16456181 25.70645839 -0.1685297 27.54174805 -0.17041016 C28.39819412 -0.18478119 29.2546402 -0.19915222 30.13703918 -0.21395874 C35.55636951 -0.17282645 38.7670145 0.5760543 42.9909668 4.29052734 C47.52610919 10.02401626 46.46608643 16.7547153 46.4284668 23.72802734 C46.4584375 25.69352539 46.4584375 25.69352539 46.48901367 27.69873047 C46.48836914 28.96523437 46.48772461 30.23173828 46.48706055 31.53662109 C46.48984009 33.26416626 46.48984009 33.26416626 46.49267578 35.02661133 C45.73459768 39.95836128 43.58362124 42.93559855 39.81884766 46.13842773 C35.77440365 47.78616418 32.07438016 47.73903534 27.74487305 47.72412109 C26.85613998 47.72936295 25.96740692 47.7346048 25.05174255 47.74000549 C23.17659548 47.74641416 21.30140815 47.74510367 19.42626953 47.73657227 C16.56624333 47.72806535 13.7082176 47.75683388 10.84838867 47.78857422 C9.02221739 47.79018655 7.1960426 47.78960809 5.36987305 47.78662109 C4.0946151 47.80347206 4.0946151 47.80347206 2.79359436 47.82066345 C-2.61036608 47.75763118 -5.74259964 46.91447269 -10.0090332 43.29052734 C-12.39088103 39.71775561 -12.34803894 37.08722504 -12.38012695 32.95458984 C-12.38915543 32.23822357 -12.3981839 31.5218573 -12.40748596 30.78378296 C-12.42198182 29.26914646 -12.43087357 27.75444744 -12.43457031 26.23974609 C-12.44645835 23.93007051 -12.49563386 21.62307583 -12.54614258 19.31396484 C-12.55560854 17.84001951 -12.56284275 16.36605781 -12.56762695 14.89208984 C-12.58715927 14.20547272 -12.60669159 13.51885559 -12.6268158 12.81143188 C-12.59111411 8.98954676 -12.12141118 7.42697045 -9.66162109 4.44042969 C-4.23961719 0.0459367 -4.23961719 0.0459367 0 0 Z " fill="#3C4250" transform="translate(187.009033203125,115.70947265625)"/>
<path d="M0 0 C0.88873306 -0.00524185 1.77746613 -0.0104837 2.69313049 -0.0158844 C4.56827757 -0.02229307 6.4434649 -0.02098258 8.31860352 -0.01245117 C11.17862972 -0.00394425 14.03665545 -0.03271279 16.89648438 -0.06445312 C18.72265565 -0.06606546 20.54883045 -0.06548699 22.375 -0.0625 C23.22517197 -0.07373398 24.07534393 -0.08496796 24.95127869 -0.09654236 C30.35523912 -0.03351008 33.48747269 0.80964841 37.75390625 4.43359375 C41.04035867 9.36327238 40.12577988 15.22890374 40.12451172 21.00219727 C40.12887113 23.22816262 40.1651562 25.45212163 40.203125 27.67773438 C40.20899643 29.10285784 40.21296364 30.52799068 40.21484375 31.953125 C40.22306152 33.24323486 40.2312793 34.53334473 40.23974609 35.86254883 C39.66652033 40.07590223 38.46621373 42.18854353 35.75390625 45.43359375 C32.94626519 47.15064348 30.81059988 47.69159489 27.53955078 47.73999023 C26.30774582 47.76397133 26.30774582 47.76397133 25.05105591 47.78843689 C24.17182465 47.79379959 23.29259338 47.79916229 22.38671875 47.8046875 C21.01820267 47.81823021 21.01820267 47.81823021 19.62203979 47.83204651 C17.69386064 47.84653891 15.76563242 47.85543324 13.83740234 47.85913086 C10.89596227 47.87102478 7.95662237 47.92021707 5.015625 47.97070312 C3.13933312 47.98016822 1.2630284 47.98740284 -0.61328125 47.9921875 C-1.92605545 48.02148598 -1.92605545 48.02148598 -3.26535034 48.05137634 C-7.46935088 48.02049956 -10.35489017 47.80448669 -13.72314453 45.14868164 C-19.23837736 39.21342866 -18.61862735 33.94963481 -18.61669922 26.07128906 C-18.62106426 24.07209865 -18.65807905 22.07306718 -18.6953125 20.07421875 C-18.69917969 18.80320313 -18.70304687 17.5321875 -18.70703125 16.22265625 C-18.71524902 15.06459473 -18.7234668 13.9065332 -18.73193359 12.71337891 C-17.99869131 7.76344081 -15.84800681 4.79639918 -12.07397461 1.58569336 C-8.0295306 -0.06204309 -4.32950711 -0.01491425 0 0 Z " fill="#3C4150" transform="translate(332.24609375,115.56640625)"/>
<path d="M0 0 C5.15538099 -0.10019428 10.31017368 -0.17208163 15.46630859 -0.21972656 C17.21380507 -0.23962459 18.96123694 -0.26675319 20.70849609 -0.30175781 C38.90606659 -0.6567305 52.31094586 3.62064906 68.125 12.3125 C69.60508362 13.11272531 71.08589006 13.91161501 72.56738281 14.70922852 C75.57837616 16.33272787 78.58530524 17.96338008 81.58886719 19.60058594 C87.68760415 22.92287984 93.81356803 26.19405216 99.93841553 29.46786499 C101.70771709 30.41486844 103.47521962 31.36523064 105.24267578 32.31567383 C106.31243652 32.8908374 107.38219727 33.46600098 108.484375 34.05859375 C109.40959961 34.55673584 110.33482422 35.05487793 111.28808594 35.56811523 C114.17074778 37.09015446 117.07938706 38.55231479 120 40 C120 40.33 120 40.66 120 41 C111.48915551 41.23317672 102.97967588 41.41010917 94.46641254 41.51812172 C90.51184974 41.5700024 86.55949384 41.6401851 82.60620117 41.75439453 C78.78045174 41.86420938 74.95680403 41.92307426 71.12959862 41.94877243 C69.68026864 41.96704844 68.23103533 42.00273523 66.78261757 42.05730057 C54.70711475 42.49352115 48.62110981 38.84024426 40 31 C38.42968888 29.79703103 36.84707997 28.60955549 35.2421875 27.453125 C34.16408813 26.66071411 34.16408813 26.66071411 33.06420898 25.85229492 C32.34177002 25.3235376 31.61933105 24.79478027 30.875 24.25 C29.25904037 23.06390318 27.64315744 21.87770187 26.02734375 20.69140625 C25.20862793 20.09086426 24.38991211 19.49032227 23.54638672 18.87158203 C20.90322358 16.92886979 18.26542377 14.97906393 15.62890625 13.02734375 C14.75959473 12.38442383 13.8902832 11.74150391 12.99462891 11.07910156 C11.31772855 9.83863718 9.64159425 8.5971364 7.96630859 7.35449219 C7.2130127 6.79793945 6.4597168 6.24138672 5.68359375 5.66796875 C5.01900146 5.17578857 4.35440918 4.6836084 3.66967773 4.17651367 C1.99984045 2.93757917 1.99984045 2.93757917 0 2 C0 1.34 0 0.68 0 0 Z " fill="#B7D5F6" transform="translate(164,52)"/>
<path d="M0 0 C5.18456367 3.87477916 9.30082216 8.74045129 11.5 14.875 C12.65752248 22.92677724 11.09781225 29.18397323 6.5 35.875 C2.41918201 40.55000303 -2.94598634 43.43872886 -9.109375 44.1953125 C-17.09191423 44.5260807 -22.18760475 42.66042328 -28.25 37.5625 C-34.16317909 30.49953609 -35.27876669 25.86592736 -35.01171875 16.546875 C-34.02805776 9.48854424 -30.42090458 5.11528125 -24.875 0.875 C-17.75624458 -3.34352173 -7.302956 -4.34832494 0 0 Z " fill="#5D6D83" transform="translate(279.5,433.125)"/>
<path d="M0 0 C5.77441941 3.27279797 8.66496548 8.26743097 11.5625 14.0625 C12.23937228 21.43073822 12.7482397 28.27445552 8.12109375 34.3828125 C3.35482146 39.51939667 -1.0580233 43.54300345 -8.26953125 44.3984375 C-16.16660785 44.50193785 -21.57783618 43.72344846 -27.41015625 38.19140625 C-33.0741464 32.03894056 -34.86732749 27.19839514 -34.6875 18.84765625 C-34.20152442 13.4335846 -32.67468153 9.58246588 -29.25 5.375 C-28.321875 4.611875 -27.39375 3.84875 -26.4375 3.0625 C-25.89480469 2.59585937 -25.35210937 2.12921875 -24.79296875 1.6484375 C-17.4618194 -3.87693401 -8.22081739 -3.55863437 0 0 Z " fill="#5D6D83" transform="translate(104.4375,432.9375)"/>
<path d="M0 0 C44.22 0 88.44 0 134 0 C131.525 2.475 131.525 2.475 129 5 C128.38391876 5.65688309 127.76783752 6.31376617 127.13308716 6.99055481 C118.44576681 14.65160002 106.85152044 12.94957626 95.9921875 12.82421875 C93.73878154 12.82131195 91.48537104 12.82093075 89.23196411 12.82295227 C84.52290948 12.81974429 79.81479321 12.79288132 75.10595703 12.74780273 C69.08244883 12.69107135 63.06010694 12.6829521 57.03637505 12.69121075 C52.3882066 12.69401321 47.74029651 12.67637778 43.09219742 12.65207863 C40.87153983 12.64189686 38.6508529 12.63677091 36.43017197 12.63687706 C33.3238527 12.63289327 30.21886583 12.6026756 27.11279297 12.56518555 C26.2034903 12.56856934 25.29418762 12.57195312 24.35733032 12.57543945 C16.09655882 12.42453667 10.39528658 9.43094985 4 4.3125 C3.236875 3.71050781 2.47375 3.10851562 1.6875 2.48828125 C1.130625 1.99714844 0.57375 1.50601563 0 1 C0 0.67 0 0.34 0 0 Z " fill="#D4E7F9" transform="translate(127,192)"/>
<path d="M0 0 C1.56127876 0.00033989 1.56127876 0.00033989 3.15409851 0.00068665 C4.83702751 0.02391243 4.83702751 0.02391243 6.55395508 0.04760742 C7.70390457 0.05185226 8.85385406 0.05609711 10.03865051 0.06047058 C13.71716574 0.07728428 17.39513625 0.1149424 21.07348633 0.15307617 C23.56501488 0.16811949 26.05655201 0.1818085 28.5480957 0.1940918 C34.66091226 0.22719664 40.77341038 0.27742312 46.88598633 0.34057617 C48.56241671 3.6064944 50.22541977 6.87906724 51.88598633 10.15307617 C52.36293945 11.0818457 52.83989258 12.01061523 53.33129883 12.9675293 C54.00805664 14.30654297 54.00805664 14.30654297 54.69848633 15.67260742 C55.11743164 16.4947876 55.53637695 17.31696777 55.96801758 18.1640625 C56.88598633 20.34057617 56.88598633 20.34057617 56.88598633 23.34057617 C48.85403591 23.41005935 40.82221088 23.46337856 32.79003429 23.49601269 C29.06043578 23.51167476 25.33104275 23.53292246 21.6015625 23.56689453 C18.00298859 23.59946936 14.40461244 23.61742511 10.80590248 23.6252079 C9.43234455 23.63075485 8.05879755 23.64158669 6.68532372 23.65776634 C4.76297926 23.67951293 2.84043618 23.68080134 0.91796875 23.68115234 C-0.17679276 23.68781418 -1.27155426 23.69447601 -2.39949036 23.70133972 C-5.11401367 23.34057617 -5.11401367 23.34057617 -6.96611023 22.06343079 C-9.00708404 19.00019305 -8.54241889 15.39498993 -8.48901367 11.84057617 C-8.50061523 11.06842773 -8.5122168 10.2962793 -8.52416992 9.50073242 C-8.49497268 3.88512922 -8.49497268 3.88512922 -6.90873718 1.61772156 C-4.49683676 -0.09861384 -2.94740743 -0.02140974 0 0 Z " fill="#63C3FD" transform="translate(404.114013671875,127.659423828125)"/>
<path d="M0 0 C2.28496265 0.01682717 4.56995821 0.02961886 6.85496521 0.03858948 C12.81184681 0.07263013 18.76669093 0.16075136 24.72277832 0.26092529 C30.82336885 0.35369869 36.92429503 0.39424698 43.02539062 0.43945312 C54.95401055 0.53540428 66.88113145 0.6886073 78.80859375 0.87890625 C78.26404647 4.79571015 77.99926747 5.69670692 74.99609375 8.56640625 C70.84072071 11.58108865 68.2393718 13.1309932 63.07562256 13.11941528 C62.12773865 13.12216461 61.17985474 13.12491394 60.20324707 13.12774658 C59.17034546 13.12055603 58.13744385 13.11336548 57.07324219 13.10595703 C55.43376617 13.10639511 55.43376617 13.10639511 53.76116943 13.10684204 C50.14668859 13.10544815 46.53241361 13.08988391 42.91796875 13.07421875 C40.41261915 13.07048884 37.90726809 13.06764176 35.4019165 13.06564331 C29.48046663 13.05878597 23.55908285 13.04302127 17.63766694 13.02294433 C10.2337182 12.99838631 2.8297603 12.98765232 -4.57421875 12.9765625 C-17.77998548 12.9551094 -30.98569118 12.92135535 -44.19140625 12.87890625 C-31.90517463 0.0441125 -16.62922585 -0.36409089 0 0 Z " fill="#D3E6F9" transform="translate(420.19140625,191.12109375)"/>
<path d="M0 0 C34.65 0 69.3 0 105 0 C105 3.96 105 7.92 105 12 C70.35 12 35.7 12 0 12 C0 8.04 0 4.08 0 0 Z " fill="#768398" transform="translate(128,448)"/>
<path d="M0 0 C7.92 0 15.84 0 24 0 C24 15.51 24 31.02 24 47 C16.08 47 8.16 47 0 47 C0 31.49 0 15.98 0 0 Z " fill="#758397" transform="translate(116,302)"/>
<path d="M0 0 C7.6496231 -0.10189485 15.29906945 -0.17167286 22.94921875 -0.21972656 C25.54856914 -0.2397713 28.14787483 -0.26701447 30.74707031 -0.30175781 C34.4955553 -0.35058865 38.24344111 -0.37304126 41.9921875 -0.390625 C43.14363251 -0.41127014 44.29507751 -0.43191528 45.48141479 -0.45318604 C54.04102062 -0.45553618 60.61983669 1.23859269 67.875 5.8125 C71.25667945 9.29364061 74 12.99310099 74 18 C66.72374001 18.11639102 59.44768415 18.2049644 52.17067814 18.25906086 C48.7907759 18.28503876 45.41151541 18.32021462 42.03198242 18.37719727 C38.13703749 18.43813419 34.24299241 18.46627742 30.34765625 18.48828125 C29.1473024 18.51408768 27.94694855 18.5398941 26.71022034 18.56648254 C18.31706419 18.56926177 12.30117503 17.09388274 6.12440491 11.21479797 C2.81458523 7.7134271 1.47844597 4.59835306 0 0 Z " fill="#B4D2F3" transform="translate(12,81)"/>
<path d="M0 0 C7.59 0 15.18 0 23 0 C23 15.51 23 31.02 23 47 C15.41 47 7.82 47 0 47 C0 31.49 0 15.98 0 0 Z " fill="#768499" transform="translate(175,302)"/>
<path d="M0 0 C7.59 0 15.18 0 23 0 C23 15.51 23 31.02 23 47 C15.41 47 7.82 47 0 47 C0 31.49 0 15.98 0 0 Z " fill="#768499" transform="translate(58,302)"/>
<path d="M0 0 C11.55 0 23.1 0 35 0 C35 7.59 35 15.18 35 23 C23.45 23 11.9 23 0 23 C0 15.41 0 7.82 0 0 Z " fill="#63C2FD" transform="translate(326,128)"/>
<path d="M0 0 C11.55 0 23.1 0 35 0 C35 7.59 35 15.18 35 23 C23.45 23 11.9 23 0 23 C0 15.41 0 7.82 0 0 Z " fill="#63C3FE" transform="translate(256,128)"/>
<path d="M0 0 C11.55 0 23.1 0 35 0 C35 7.59 35 15.18 35 23 C23.45 23 11.9 23 0 23 C0 15.41 0 7.82 0 0 Z " fill="#63C3FE" transform="translate(186,128)"/>
<path d="M0 0 C9.9 0 19.8 0 30 0 C30 3.96 30 7.92 30 12 C20.1 12 10.2 12 0 12 C0 8.04 0 4.08 0 0 Z " fill="#748296" transform="translate(302,448)"/>
<path d="M0 0 C9.9 0 19.8 0 30 0 C30 3.96 30 7.92 30 12 C20.1 12 10.2 12 0 12 C0 8.04 0 4.08 0 0 Z " fill="#748296" transform="translate(29,448)"/>
<path d="M0 0 C3.96 0 7.92 0 12 0 C12 9.57 12 19.14 12 29 C8.04 29 4.08 29 0 29 C0 19.43 0 9.86 0 0 Z " fill="#EC718E" transform="translate(35,384)"/>
<path d="M0 0 C12.87 0 25.74 0 39 0 C36.56821943 4.86356113 33.61180342 7.72508579 28.6953125 10.125 C22.3702114 12.17836615 14.59663623 12.16203371 8.5 9.375 C4.81180701 7.19490287 2.46961206 4.47289196 0 1 C0 0.67 0 0.34 0 0 Z " fill="#5D6D82" transform="translate(405,390)"/>
<path d="M0 0 C12.87 0 25.74 0 39 0 C35.6003028 5.666162 35.6003028 5.666162 32.5625 7.75 C31.98628906 8.15734375 31.41007812 8.5646875 30.81640625 8.984375 C25.22060001 12.1132129 18.18479882 11.66503213 12 11 C7.26612062 9.14211955 3.23854772 5.91324516 0 2 C0 1.34 0 0.68 0 0 Z " fill="#5D6D82" transform="translate(353,390)"/>
<path d="M0 0 C0 5.61 0 11.22 0 17 C-12.32069672 17.49282787 -12.32069672 17.49282787 -15.390625 15.265625 C-17.1792824 12.74761215 -17.54182535 11.55325036 -17.5 8.5 C-17.5103125 7.7471875 -17.520625 6.994375 -17.53125 6.21875 C-15.46308409 -2.41888411 -6.93819013 -0.27752761 0 0 Z " fill="#EF718F" transform="translate(326,390)"/>
<path d="M0 0 C1.15822266 -0.01740234 1.15822266 -0.01740234 2.33984375 -0.03515625 C7.98500339 -0.00580533 7.98500339 -0.00580533 10.25585938 1.67333984 C11.5 3.375 11.5 3.375 11.3125 7 C11.044375 8.11375 10.77625 9.2275 10.5 10.375 C7.22978041 12.01010979 3.65266249 11.60128299 0.0625 11.625 C-1.10249023 11.6559375 -1.10249023 11.6559375 -2.29101562 11.6875 C-8.0551884 11.72721868 -8.0551884 11.72721868 -10.22290039 10.01074219 C-11.5 8.375 -11.5 8.375 -11.875 5.875 C-10.89083845 -0.686077 -5.50137305 -0.08265836 0 0 Z " fill="#3B3F4C" transform="translate(203.5,395.625)"/>
<path d="M0 0 C2.9375 0.75 2.9375 0.75 4.9375 2.75 C4.75 6.25 4.75 6.25 3.9375 9.75 C0.9375 11.75 0.9375 11.75 -1.5625 11.5625 C-4.31637823 10.66748958 -5.53136237 10.21683286 -7.0625 7.75 C-6.9375 4.6875 -6.9375 4.6875 -6.0625 1.75 C-3.0625 -0.25 -3.0625 -0.25 0 0 Z " fill="#3B414F" transform="translate(94.0625,448.25)"/>
<path d="M0 0 C1.38125018 2.76250036 1.19079306 4.94731099 1 8 C-1 10 -1 10 -4.5 10.3125 C-6.2325 10.1578125 -6.2325 10.1578125 -8 10 C-10.15502531 6.76746204 -10.46856135 5.74849077 -10 2 C-7.59587398 -2.24257532 -4.222762 -1.01659085 0 0 Z " fill="#3A3F4D" transform="translate(272,449)"/>
</svg>
